<?xml version="1.0" encoding="UTF-8"?>
<svg width="512" height="512" viewBox="0 0 512 512" fill="none" xmlns="http://www.w3.org/2000/svg">
  <circle cx="256" cy="256" r="256" fill="#10B981"/>
  <path d="M320 176H288V160C288 133.49 266.51 112 240 112H208C181.49 112 160 133.49 160 160V176H128C101.49 176 80 197.49 80 224V384C80 410.51 101.49 432 128 432H320C346.51 432 368 410.51 368 384V224C368 197.49 346.51 176 320 176ZM192 160C192 151.16 199.16 144 208 144H240C248.84 144 256 151.16 256 160V176H192V160Z" fill="white"/>
  <path d="M272 304H176C167.16 304 160 311.16 160 320C160 328.84 167.16 336 176 336H272C280.84 336 288 328.84 288 320C288 311.16 280.84 304 272 304Z" fill="white"/>
  <path d="M272 256H176C167.16 256 160 263.16 160 272C160 280.84 167.16 288 176 288H272C280.84 288 288 280.84 288 272C288 263.16 280.84 256 272 256Z" fill="white"/>
</svg>
